{
.appVersion = "3134";
.formatVersion = 3;
date = "2022-12-02 21:04:31 +0000";
familyName = "BP Std Grotesk";
fontMaster = (
{
id = m01;
metricValues = (
{
pos = 958;
},
{
over = 14;
pos = 715;
},
{
over = 15;
pos = 510;
},
{
over = -15;
},
{
pos = -242;
},
{
over = -16;
}
);
name = Regular;
stemValues = (
75,
85
);
userData = {
GSCornerRadius = 30;
};
}
);
glyphs = (
{
glyphname = O;
lastChange = "2022-12-12 17:04:08 +0000";
layers = (
{
layerId = m01;
shapes = (
{
closed = 1;
nodes = (
(584,-15,o),
(715,128,o),
(715,356,cs),
(715,584,o),
(584,729,o),
(376,729,cs),
(164,729,o),
(30,584,o),
(30,356,cs),
(30,128,o),
(164,-15,o),
(376,-15,cs)
);
},
{
closed = 1;
nodes = (
(220,52,o),
(122,169,o),
(122,356,cs),
(122,543,o),
(220,661,o),
(375,661,cs),
(527,661,o),
(623,543,o),
(623,356,cs),
(623,169,o),
(527,52,o),
(375,52,cs)
);
}
);
width = 745;
}
);
unicode = 79;
},
{
glyphname = a;
lastChange = "2022-12-05 21:23:40 +0000";
layers = (
{
layerId = m01;
shapes = (
{
closed = 1;
nodes = (
(341,-15,o),
(397,12,o),
(421,61,c),
(436,-31,o),
(527,-17,o),
(550,-6,c),
(550,54,l),
(519,47,o),
(509,58,o),
(509,88,cs),
(509,382,ls),
(509,465,o),
(442,525,o),
(325,525,cs),
(179,525,o),
(124,456,o),
(117,343,c),
(198,343,l),
(204,411,o),
(231,455,o),
(326,455,cs),
(394,455,o),
(425,422,o),
(425,382,cs),
(425,331,o),
(361,317,o),
(290,301,cs),
(208,282,o),
(95,269,o),
(95,135,cs),
(95,42,o),
(166,-15,o),
(252,-15,cs)
);
},
{
closed = 1;
nodes = (
(216,56,o),
(180,87,o),
(179,135,cs),
(178,186,o),
(227,219,o),
(314,238,cs),
(380,252,o),
(416,268,o),
(425,290,c),
(425,224,ls),
(425,106,o),
(373,56,o),
(280,56,c)
);
}
);
width = 600;
}
);
unicode = 97;
},
{
glyphname = b;
lastChange = "2022-12-04 02:11:03 +0000";
layers = (
{
layerId = m01;
shapes = (
{
closed = 1;
nodes = (
(80,0,l),
(150,0,l),
(160,66,l),
(190,18,o),
(254,-15,o),
(315,-15,cs),
(454,-15,o),
(552,96,o),
(552,255,cs),
(552,414,o),
(454,525,o),
(315,525,cs),
(256,525,o),
(192,492,o),
(160,445,c),
(160,715,l),
(80,715,l)
);
},
{
closed = 1;
nodes = (
(160,378,o),
(220,455,o),
(309,455,cs),
(409,455,o),
(468,378,o),
(468,255,cs),
(468,132,o),
(409,55,o),
(309,55,cs),
(220,55,o),
(160,132,o),
(160,255,cs)
);
}
);
width = 600;
}
);
unicode = 98;
},
{
glyphname = c;
lastChange = "2022-12-09 03:48:07 +0000";
layers = (
{
layerId = m01;
shapes = (
{
closed = 1;
nodes = (
(55,90,o),
(152,-15,o),
(306,-15,cs),
(436,-15,o),
(524,62,o),
(541,189,c),
(456,189,l),
(442,106,o),
(386,55,o),
(305,55,cs),
(204,55,o),
(139,133,o),
(139,255,cs),
(139,377,o),
(204,455,o),
(305,455,cs),
(386,455,o),
(442,404,o),
(456,321,c),
(541,321,l),
(524,448,o),
(436,525,o),
(306,525,cs),
(152,525,o),
(55,420,o),
(55,255,cs)
);
}
);
width = 600;
}
);
unicode = 99;
},
{
glyphname = d;
lastChange = "2022-12-04 02:10:50 +0000";
layers = (
{
layerId = m01;
shapes = (
{
closed = 1;
nodes = (
(472,715,l),
(472,445,l),
(440,492,o),
(376,525,o),
(317,525,cs),
(178,525,o),
(80,414,o),
(80,255,cs),
(80,96,o),
(178,-15,o),
(317,-15,cs),
(378,-15,o),
(442,18,o),
(472,66,c),
(472,0,l),
(552,0,l),
(552,715,l)
);
},
{
closed = 1;
nodes = (
(472,132,o),
(412,55,o),
(323,55,cs),
(223,55,o),
(164,132,o),
(164,255,cs),
(164,378,o),
(223,455,o),
(323,455,cs),
(412,455,o),
(472,378,o),
(472,255,cs)
);
}
);
width = 600;
}
);
unicode = 100;
},
{
glyphname = e;
lastChange = "2022-12-12 14:13:54 +0000";
layers = (
{
layerId = m01;
shapes = (
{
closed = 1;
nodes = (
(427,-15,o),
(511,51,o),
(540,163,c),
(455,163,l),
(431,95,o),
(377,55,o),
(305,55,cs),
(213,55,o),
(149,120,o),
(138,225,c),
(546,225,l),
(547,255,l),
(547,428,o),
(461,525,o),
(306,525,cs),
(152,525,o),
(55,421,o),
(55,255,cs),
(55,90,o),
(152,-15,o),
(306,-15,cs)
);
},
{
closed = 1;
nodes = (
(152,393,o),
(216,455,o),
(305,455,cs),
(407,455,o),
(464,398,o),
(463,295,c),
(139,295,l)
);
}
);
width = 600;
}
);
unicode = 101;
},
{
glyphname = f;
lastChange = "2022-12-12 15:30:51 +0000";
layers = (
{
guides = (
{
angle = 270;
pos = (336,475);
}
);
layerId = m01;
shapes = (
{
closed = 1;
nodes = (
(82,440,l),
(153,440,l),
(153,0,l),
(233,0,l),
(233,440,l),
(336,440,l),
(336,510,l),
(233,510,l),
(233,566,ls),
(233,620,o),
(254,647,o),
(297,647,cs),
(314,647,o),
(326,646,o),
(336,645,c),
(336,715,l),
(300,718,ls),
(202,725,o),
(153,669,o),
(153,554,cs),
(153,510,l),
(82,510,l)
);
}
);
width = 600;
}
);
unicode = 102;
},
{
glyphname = g;
lastChange = "2022-12-05 23:35:02 +0000";
layers = (
{
layerId = m01;
shapes = (
{
closed = 1;
nodes = (
(470,-188,o),
(552,-101,o),
(552,54,cs),
(552,510,l),
(472,510,l),
(472,444,l),
(450,492,o),
(386,525,o),
(317,525,cs),
(178,525,o),
(80,419,o),
(80,273,cs),
(80,131,o),
(178,20,o),
(317,20,cs),
(386,20,o),
(450,53,o),
(472,100,c),
(472,35,ls),
(472,-63,o),
(417,-118,o),
(320,-118,cs),
(229,-118,o),
(177,-68,o),
(172,21,c),
(89,21,l),
(94,-113,o),
(178,-188,o),
(324,-188,cs)
);
},
{
closed = 1;
nodes = (
(223,90,o),
(164,167,o),
(164,273,cs),
(164,383,o),
(223,455,o),
(323,455,cs),
(412,455,o),
(472,383,o),
(472,273,cs),
(472,167,o),
(412,90,o),
(323,90,cs)
);
}
);
width = 600;
}
);
unicode = 103;
},
{
glyphname = h;
lastChange = "2022-12-04 00:38:49 +0000";
layers = (
{
layerId = m01;
shapes = (
{
closed = 1;
nodes = (
(95,0,l),
(175,0,l),
(175,302,ls),
(175,395,o),
(231,455,o),
(321,455,cs),
(408,455,o),
(436,404,o),
(436,338,cs),
(436,0,l),
(516,0,l),
(516,352,ls),
(516,463,o),
(437,525,o),
(331,525,cs),
(259,525,o),
(199,501,o),
(175,456,c),
(175,715,l),
(95,715,l)
);
}
);
width = 600;
}
);
unicode = 104;
},
{
glyphname = i;
lastChange = "2022-12-04 00:23:28 +0000";
layers = (
{
layerId = m01;
shapes = (
{
closed = 1;
nodes = (
(253,0,l),
(333,0,l),
(333,510,l),
(253,510,l)
);
},
{
closed = 1;
nodes = (
(253,610,l),
(333,610,l),
(333,715,l),
(253,715,l)
);
}
);
width = 600;
}
);
unicode = 105;
},
{
glyphname = j;
lastChange = "2022-12-12 14:21:53 +0000";
layers = (
{
layerId = m01;
shapes = (
{
closed = 1;
nodes = (
(253,610,l),
(333,610,l),
(333,715,l),
(253,715,l)
);
},
{
closed = 1;
nodes = (
(186,-156,ls),
(284,-162,o),
(333,-108,o),
(333,-12,c),
(333,510,l),
(253,510,l),
(253,-24,ls),
(253,-65,o),
(231,-88,o),
(190,-86,cs),
(153,-84,l),
(153,-154,l)
);
}
);
width = 600;
}
);
unicode = 106;
},
{
glyphname = k;
lastChange = "2022-12-12 17:01:33 +0000";
layers = (
{
layerId = m01;
shapes = (
{
closed = 1;
nodes = (
(55,0,l),
(135,0,l),
(135,203,l),
(209,271,l),
(395,0,l),
(490,0,l),
(268,325,l),
(469,510,l),
(373,510,l),
(135,297,l),
(135,715,l),
(55,715,l)
);
}
);
width = 600;
}
);
unicode = 107;
},
{
glyphname = l;
lastChange = "2022-12-04 00:22:43 +0000";
layers = (
{
layerId = m01;
shapes = (
{
closed = 1;
nodes = (
(257,0,l),
(337,0,l),
(337,715,l),
(257,715,l)
);
}
);
width = 600;
}
);
unicode = 108;
},
{
glyphname = m;
lastChange = "2022-12-05 23:19:13 +0000";
layers = (
{
layerId = m01;
shapes = (
{
closed = 1;
nodes = (
(95,0,l),
(175,0,l),
(175,302,ls),
(175,395,o),
(213,455,o),
(303,455,cs),
(390,455,o),
(398,404,o),
(398,338,cs),
(398,0,l),
(478,0,l),
(478,302,ls),
(478,395,o),
(516,455,o),
(606,455,cs),
(693,455,o),
(701,404,o),
(701,338,cs),
(701,0,l),
(781,0,l),
(781,352,ls),
(781,463,o),
(722,525,o),
(616,525,cs),
(544,525,o),
(486,491,o),
(466,430,c),
(444,491,o),
(391,525,o),
(313,525,cs),
(241,525,o),
(199,501,o),
(175,456,c),
(175,510,l),
(95,510,l)
);
}
);
width = 879;
}
);
unicode = 109;
},
{
glyphname = n;
lastChange = "2022-12-05 23:12:20 +0000";
layers = (
{
hints = (
{
horizontal = 1;
place = (0, 21);
target = up;
type = BottomGhost;
},
{
horizontal = 1;
place = (510, -20);
target = down;
type = TopGhost;
},
{
place = (95, 80);
place = (95, 80);
type = Stem;
}
);
layerId = m01;
shapes = (
{
closed = 1;
nodes = (
(95,0,l),
(175,0,l),
(175,302,ls),
(175,395,o),
(231,455,o),
(321,455,cs),
(408,455,o),
(436,404,o),
(436,338,cs),
(436,0,l),
(516,0,l),
(516,352,ls),
(516,463,o),
(437,525,o),
(331,525,cs),
(259,525,o),
(199,501,o),
(175,456,c),
(175,510,l),
(95,510,l)
);
}
);
width = 600;
}
);
unicode = 110;
},
{
glyphname = o;
lastChange = "2022-12-02 23:18:02 +0000";
layers = (
{
layerId = m01;
shapes = (
{
closed = 1;
nodes = (
(457,-15,o),
(552,89,o),
(552,254,cs),
(552,420,o),
(457,525,o),
(306,525,cs),
(152,525,o),
(55,420,o),
(55,254,cs),
(55,89,o),
(152,-15,o),
(306,-15,cs)
);
},
{
closed = 1;
nodes = (
(204,55,o),
(139,132,o),
(139,254,cs),
(139,377,o),
(204,455,o),
(305,455,cs),
(405,455,o),
(468,377,o),
(468,254,cs),
(468,132,o),
(405,55,o),
(305,55,cs)
);
}
);
width = 600;
}
);
unicode = 111;
},
{
glyphname = p;
lastChange = "2022-12-04 02:10:22 +0000";
layers = (
{
layerId = m01;
shapes = (
{
closed = 1;
nodes = (
(160,-175,l),
(160,65,l),
(192,18,o),
(256,-15,o),
(315,-15,cs),
(454,-15,o),
(552,96,o),
(552,255,cs),
(552,414,o),
(454,525,o),
(315,525,cs),
(254,525,o),
(190,492,o),
(160,444,c),
(160,510,l),
(80,510,l),
(80,-175,l)
);
},
{
closed = 1;
nodes = (
(160,378,o),
(220,455,o),
(309,455,cs),
(409,455,o),
(468,378,o),
(468,255,cs),
(468,132,o),
(409,55,o),
(309,55,cs),
(220,55,o),
(160,132,o),
(160,255,cs)
);
}
);
width = 600;
}
);
unicode = 112;
},
{
glyphname = q;
lastChange = "2022-12-04 02:10:36 +0000";
layers = (
{
layerId = m01;
shapes = (
{
closed = 1;
nodes = (
(552,510,l),
(472,510,l),
(472,444,l),
(450,492,o),
(386,525,o),
(317,525,cs),
(178,525,o),
(80,414,o),
(80,255,cs),
(80,96,o),
(178,-15,o),
(317,-15,cs),
(386,-15,o),
(450,18,o),
(472,65,c),
(472,-177,l),
(552,-177,l)
);
},
{
closed = 1;
nodes = (
(472,132,o),
(412,55,o),
(323,55,cs),
(223,55,o),
(164,132,o),
(164,255,cs),
(164,378,o),
(223,455,o),
(323,455,cs),
(412,455,o),
(472,378,o),
(472,255,cs)
);
}
);
width = 600;
}
);
unicode = 113;
},
{
glyphname = r;
lastChange = "2022-12-05 23:37:45 +0000";
layers = (
{
layerId = m01;
shapes = (
{
closed = 1;
nodes = (
(255,525,o),
(199,501,o),
(175,456,c),
(175,510,l),
(95,510,l),
(95,0,l),
(175,0,l),
(175,302,ls),
(175,395,o),
(231,445,o),
(321,445,cs),
(337,445,o),
(360,441,o),
(372,438,c),
(372,521,l),
(358,524,o),
(340,525,o),
(326,525,cs)
);
}
);
width = 600;
}
);
unicode = 114;
},
{
glyphname = s;
lastChange = "2022-12-09 03:57:17 +0000";
layers = (
{
hints = (
{
horizontal = 1;
origin = (0,12);
target = (0,5);
type = Stem;
},
{
horizontal = 1;
origin = (0,31);
target = (0,24);
type = Stem;
},
{
origin = (0,34);
target = (0,21);
type = Stem;
},
{
origin = (0,2);
target = (0,15);
type = Stem;
},
{
origin = (0,34);
target = (0,21);
type = Stem;
}
);
layerId = m01;
shapes = (
{
closed = 1;
nodes = (
(391,211,o),
(435,191,o),
(435,140,cs),
(435,85,o),
(395,55,o),
(322,55,cs),
(229,55,o),
(188,102,o),
(183,190,c),
(99,190,l),
(104,56,o),
(173,-15,o),
(321,-15,cs),
(449,-15,o),
(519,41,o),
(519,141,cs),
(519,224,o),
(458,272,o),
(330,301,cs),
(259,317,o),
(196,331,o),
(196,382,cs),
(196,422,o),
(227,455,o),
(295,455,cs),
(390,455,o),
(414,411,o),
(420,343,c),
(504,343,l),
(497,456,o),
(442,525,o),
(296,525,cs),
(179,525,o),
(112,465,o),
(112,382,cs),
(112,272,o),
(238,244,o),
(307,229,cs)
);
}
);
width = 600;
}
);
unicode = 115;
},
{
glyphname = t;
lastChange = "2022-12-12 15:25:18 +0000";
layers = (
{
layerId = m01;
shapes = (
{
closed = 1;
nodes = (
(72,440,l),
(153,440,l),
(153,161,ls),
(153,46,o),
(202,-11,o),
(300,-3,cs),
(336,0,l),
(336,70,l),
(326,69,o),
(314,68,o),
(297,68,cs),
(254,68,o),
(233,95,o),
(233,149,cs),
(233,440,l),
(336,440,l),
(336,510,l),
(233,510,l),
(233,664,l),
(153,664,l),
(153,510,l),
(72,510,l)
);
}
);
width = 600;
}
);
unicode = 116;
},
{
glyphname = u;
lastChange = "2022-12-04 00:39:37 +0000";
layers = (
{
layerId = m01;
shapes = (
{
closed = 1;
nodes = (
(516,510,l),
(436,510,l),
(436,208,ls),
(436,115,o),
(380,55,o),
(290,55,cs),
(203,55,o),
(175,106,o),
(175,172,cs),
(175,510,l),
(95,510,l),
(95,158,ls),
(95,47,o),
(174,-15,o),
(280,-15,cs),
(352,-15,o),
(412,9,o),
(436,54,c),
(436,0,l),
(516,0,l)
);
}
);
width = 600;
}
);
unicode = 117;
},
{
glyphname = v;
lastChange = "2022-12-12 14:48:00 +0000";
layers = (
{
layerId = m01;
shapes = (
{
closed = 1;
nodes = (
(122,510,l),
(269,81,l),
(270,81,l),
(416,510,l),
(502,510,l),
(313,1,l),
(222,1,l),
(36,510,l)
);
}
);
width = 600;
}
);
unicode = 118;
},
{
glyphname = w;
lastChange = "2022-12-12 15:20:39 +0000";
layers = (
{
layerId = m01;
shapes = (
{
closed = 1;
nodes = (
(601,1,l),
(762,510,l),
(676,510,l),
(555,91,l),
(554,91,l),
(442,510,l),
(356,510,l),
(244,91,l),
(243,91,l),
(122,510,l),
(36,510,l),
(197,1,l),
(288,1,l),
(398,418,l),
(399,418,l),
(510,1,l)
);
}
);
width = 794;
}
);
unicode = 119;
},
{
glyphname = x;
lastChange = "2022-12-12 15:29:45 +0000";
layers = (
{
layerId = m01;
shapes = (
{
closed = 1;
nodes = (
(561,1,l),
(361,269,l),
(541,510,l),
(445,510,l),
(313,333,l),
(312,333,l),
(181,510,l),
(85,510,l),
(265,269,l),
(65,1,l),
(161,1,l),
(313,205,l),
(314,205,l),
(465,1,l)
);
}
);
width = 600;
}
);
unicode = 120;
},
{
glyphname = y;
lastChange = "2022-12-12 15:39:48 +0000";
layers = (
{
layerId = m01;
shapes = (
{
closed = 1;
nodes = (
(220,-36,ls),
(199,-95,o),
(174,-120,o),
(131,-120,cs),
(114,-120,o),
(102,-119,o),
(92,-118,c),
(92,-186,l),
(128,-189,ls),
(226,-197,o),
(260,-139,o),
(299,-25,cs),
(502,510,l),
(416,510,l),
(270,91,l),
(269,91,l),
(122,510,l),
(36,510,l),
(233,1,l)
);
}
);
width = 600;
}
);
unicode = 121;
},
{
glyphname = z;
lastChange = "2022-12-12 17:01:56 +0000";
layers = (
{
layerId = m01;
shapes = (
{
closed = 1;
nodes = (
(30,60,l),
(30,0,l),
(442,0,l),
(442,70,l),
(134,70,l),
(134,72,l),
(431,462,l),
(431,510,l),
(47,510,l),
(47,440,l),
(318,440,l),
(318,438,l)
);
}
);
width = 600;
}
);
unicode = 122;
},
